<svg width="200" height="61" viewBox="0 0 200 61" fill="none" xmlns="http://www.w3.org/2000/svg">
<path d="M39.8726 24.4934C39.7665 24.6233 39.6781 24.7178 39.631 24.771L39.4954 24.9127C34.3795 30.6536 25.6092 26.2357 25.2379 26.0408L25.0965 25.9699C10.5384 19.5793 3.27115 26.4661 0.901775 29.5669C0.300592 30.3524 0.0117879 30.8958 0 30.9194H6.29475C6.83699 30.4528 7.50301 29.9803 8.31637 29.5669C10.892 28.2439 14.8999 27.5115 20.7821 29.5669C21.5129 29.8208 22.2733 30.1162 23.0631 30.4646C23.5935 30.7304 26.399 32.0652 29.9472 32.5673C34.6211 33.2229 38.6644 32.1893 41.7528 29.5728C42.2243 29.1711 42.684 28.7341 43.1084 28.2557C43.4797 27.8777 44.7764 26.472 45.4012 24.4993H39.8726V24.4934Z" fill="#4FC6E0"/>
<path d="M39.8726 32.5437C39.7665 32.6737 39.6781 32.7682 39.631 32.8154L39.4954 32.9572C34.3795 38.6981 25.6092 34.2802 25.2379 34.0912L25.0965 34.0203C10.5384 27.6238 3.27115 34.5105 0.901775 37.6113C0.300592 38.4028 0.0117879 38.9402 0 38.9698H6.29475C6.83699 38.5032 7.50301 38.0307 8.31637 37.6172C10.892 36.2942 14.8999 35.5618 20.7821 37.6172C21.5129 37.8712 22.2733 38.1665 23.0631 38.515C23.5935 38.7808 26.399 40.1156 29.9472 40.6117C34.6211 41.2732 38.6644 40.2337 41.7528 37.6172C42.2243 37.2156 42.684 36.7785 43.1084 36.3001C43.4797 35.9221 44.7764 34.5164 45.4012 32.5437H39.8726Z" fill="#4FC6E0"/>
<path d="M68.0871 13.6022H70.7453C68.871 10.779 66.5311 8.257 63.8258 6.1957C63.425 5.88857 63.0183 5.59917 62.6117 5.31566C57.5546 1.83686 51.6548 0 45.4602 0C38.7588 0.00590629 32.4051 2.14989 27.0888 6.1957C22.4385 9.73948 18.8726 14.624 16.8864 20.0991H19.2145C21.1005 15.3209 24.2951 11.0625 28.4031 7.93215C33.3423 4.16984 39.2362 2.18533 45.4544 2.18533C51.6725 2.18533 57.5723 4.17575 62.5056 7.93215C62.535 7.95578 62.5704 7.98531 62.6058 8.00893C64.6863 9.61545 66.5252 11.5055 68.0871 13.6022Z" fill="white"/>
<path d="M66.6785 49.0517C65.4526 50.4574 64.0911 51.7509 62.6058 52.8908C62.5704 52.9145 62.5409 52.944 62.5056 52.9676C57.5664 56.7299 51.6725 58.7144 45.4544 58.7144C39.2362 58.7144 33.3423 56.724 28.4031 52.9676C24.2951 49.8432 21.1005 45.5848 19.2145 40.8007H16.8864C18.8667 46.2699 22.4385 51.1603 27.0888 54.7041C32.411 58.7558 38.7588 60.8939 45.4603 60.8939C51.6548 60.8939 57.5547 59.0629 62.6117 55.5782C63.0243 55.2947 63.425 55.0053 63.8258 54.6982C65.9594 53.0739 67.8632 51.1603 69.4958 49.0399H66.6785V49.0517Z" fill="white"/>
<path d="M83.1992 53.0858C83.4762 52.8377 83.6707 52.5424 83.7827 52.2057C83.8888 51.8691 83.9477 51.5088 83.9477 51.1249C83.9477 50.6406 83.8534 50.2035 83.6766 49.8137C83.4939 49.4239 83.2464 49.0872 82.9281 48.8037C82.6157 48.5143 82.2503 48.2958 81.8318 48.1422C81.4133 47.9886 80.9713 47.9119 80.5057 47.9119H73.5213V59.311H80.5057C81.7788 59.311 82.769 59.0039 83.4821 58.3896C84.1894 57.7754 84.5489 56.8953 84.5489 55.7495C84.5489 55.1943 84.4311 54.6746 84.1953 54.1903C83.9595 53.7059 83.6236 53.3338 83.1992 53.0858ZM75.7787 50.1799H80.4998C80.8357 50.1799 81.1127 50.2626 81.3249 50.422C81.5371 50.5815 81.6432 50.8178 81.6432 51.1249C81.6432 51.7864 81.2601 52.1171 80.4998 52.1171H79.3387C78.6785 52.1171 78.0479 52.1526 77.4408 52.2235C76.8337 52.2943 76.2797 52.4833 75.7846 52.7727V50.1799H75.7787ZM82.1206 56.3756C82.0204 56.5469 81.8849 56.6768 81.7257 56.7713C81.5666 56.8658 81.378 56.9308 81.1658 56.9662C80.9536 57.0016 80.7296 57.0194 80.4939 57.0194H75.7728V55.0821C76.0204 54.9522 76.2502 54.8399 76.4565 54.7514C76.6628 54.6628 76.8868 54.5978 77.1343 54.5505C77.3819 54.5033 77.6825 54.4738 78.0243 54.4501C78.3662 54.4265 78.8023 54.4206 79.3328 54.4206H80.4939C81.1245 54.4206 81.5784 54.5269 81.8554 54.7395C82.1324 54.9522 82.2739 55.2711 82.2739 55.6964C82.2798 55.9858 82.2267 56.2043 82.1206 56.3756Z" fill="white"/>
<path d="M88.0323 55.2179C88.2798 55.088 88.5097 54.9758 88.7101 54.8872C88.9164 54.7986 89.1404 54.7336 89.3938 54.6923C89.6413 54.6509 89.9419 54.6155 90.2838 54.5919C90.6256 54.5683 91.0618 54.5624 91.5922 54.5624H93.2602V52.2943H91.5922C90.9321 52.2943 90.3015 52.3298 89.6944 52.4066C89.0873 52.4833 88.5333 52.6664 88.0382 52.9558V50.1799H94.7573V47.9119H85.7985V59.311H95.1758V57.0194H88.0382V55.2179H88.0323Z" fill="white"/>
<path d="M98.7708 47.9177H96.4192V59.311H104.812V57.0252H98.7708V47.9177Z" fill="white"/>
<path d="M110.765 47.6519L111.514 49.0812L106.068 59.3168H108.443L108.508 59.1868C108.596 59.0687 108.832 58.9211 109.221 58.738C109.61 58.5549 110.087 58.3777 110.647 58.2064C111.213 58.041 111.838 57.8934 112.527 57.7752C113.217 57.6571 113.913 57.5981 114.614 57.5981H115.975L116.877 59.3168H119.359L113.211 47.6519H110.765V47.6519ZM114.584 55.5309C113.4 55.5309 112.421 55.649 111.661 55.8852C110.901 56.1215 110.335 56.3341 109.969 56.5231L112.669 51.3079L114.885 55.5309H114.584Z" fill="white"/>
<path d="M124.315 50.1798H127.038V55.0407C127.038 55.4482 126.956 55.8026 126.797 56.0979C126.638 56.3933 126.425 56.6354 126.16 56.8244C125.895 57.0134 125.594 57.1552 125.258 57.2438C124.922 57.3324 124.569 57.3737 124.203 57.3737C123.573 57.3737 123.066 57.3146 122.677 57.1965C122.288 57.0784 121.993 56.9248 121.787 56.7358L120.602 58.803C120.791 58.933 121.032 59.0511 121.315 59.1574C121.604 59.2637 121.905 59.3523 122.229 59.4291C122.553 59.5118 122.865 59.5708 123.184 59.6063C123.496 59.6417 123.779 59.6594 124.032 59.6594C124.752 59.6594 125.429 59.5649 126.066 59.3759C126.702 59.1869 127.256 58.8916 127.734 58.5077C128.211 58.1179 128.589 57.6395 128.866 57.0666C129.143 56.4937 129.284 55.8203 129.284 55.0407V47.9177H123.302L124.315 50.1798Z" fill="white"/>
<path d="M132.767 47.9177H130.528V59.3169H132.767V47.9177Z" fill="white"/>
<path d="M140.159 47.4689C136.77 47.4689 134.023 50.2212 134.023 53.6173C134.023 57.0134 136.77 59.7658 140.159 59.7658C143.548 59.7658 146.294 57.0134 146.294 53.6173C146.294 50.2212 143.548 47.4689 140.159 47.4689ZM140.159 57.5923C137.972 57.5923 136.198 55.8145 136.198 53.6232C136.198 51.432 137.972 49.6483 140.159 49.6483C142.345 49.6483 144.119 51.4261 144.119 53.6232C144.119 55.8145 142.345 57.5923 140.159 57.5923Z" fill="white"/>
<path d="M161.442 52.1467C161.236 52.1467 161.041 52.1821 160.858 52.2648C160.676 52.3416 160.517 52.4538 160.387 52.5837C160.251 52.7137 160.145 52.8791 160.069 53.0562C159.992 53.2334 159.951 53.4342 159.951 53.641V59.7599H158.919V51.1662H159.261L159.821 52.0404C160.057 51.7214 160.346 51.4675 160.705 51.2785C161.059 51.0894 161.448 51.0009 161.866 51.0009H162.467V52.1467H161.442Z" fill="white"/>
<path d="M169.375 58.3777C169.246 58.6908 169.063 58.9566 168.833 59.1869C168.603 59.4172 168.338 59.5944 168.031 59.7303C167.725 59.8602 167.395 59.9252 167.053 59.9252H166.364C166.016 59.9252 165.692 59.8602 165.385 59.7303C165.079 59.6003 164.807 59.4172 164.578 59.1869C164.348 58.9625 164.171 58.6908 164.041 58.3777C163.912 58.0706 163.847 57.7458 163.847 57.3973V53.5228C163.847 53.1743 163.912 52.8494 164.041 52.5423C164.171 52.2293 164.354 51.9694 164.578 51.7332C164.807 51.5028 165.079 51.3256 165.385 51.1898C165.692 51.0598 166.016 50.9949 166.364 50.9949H167.053C167.395 50.9949 167.725 51.0598 168.031 51.1898C168.338 51.3197 168.603 51.5028 168.833 51.7332C169.063 51.9635 169.246 52.2293 169.375 52.5423C169.505 52.8494 169.57 53.1743 169.57 53.5228V55.5427H164.872V57.4564C164.872 57.6631 164.914 57.858 164.99 58.0411C165.067 58.2242 165.173 58.3777 165.308 58.5136C165.444 58.6435 165.597 58.7498 165.78 58.8325C165.957 58.9093 166.151 58.9507 166.364 58.9507H167.053C167.259 58.9507 167.454 58.9093 167.637 58.8325C167.813 58.7557 167.973 58.6494 168.108 58.5136C168.238 58.3777 168.35 58.2183 168.426 58.0411C168.503 57.858 168.544 57.6631 168.544 57.4564V56.8834L169.576 57.0488V57.3914C169.57 57.7458 169.505 58.0706 169.375 58.3777ZM168.538 53.4637C168.538 53.257 168.497 53.0621 168.42 52.879C168.344 52.7018 168.238 52.5423 168.102 52.4065C167.967 52.2706 167.808 52.1702 167.631 52.0875C167.448 52.0108 167.253 51.9694 167.047 51.9694H166.358C166.151 51.9694 165.957 52.0108 165.774 52.0875C165.591 52.1643 165.432 52.2706 165.303 52.4065C165.167 52.5423 165.061 52.7018 164.984 52.879C164.908 53.0621 164.866 53.257 164.866 53.4637V54.7395H168.532V53.4637H168.538Z" fill="white"/>
<path d="M177.527 57.5746C177.527 57.923 177.456 58.242 177.314 58.5314C177.173 58.8208 176.984 59.0689 176.748 59.2697C176.507 59.4764 176.23 59.6359 175.917 59.754C175.599 59.8721 175.269 59.9253 174.921 59.9253H174.238C173.89 59.9253 173.56 59.8603 173.247 59.7304C172.935 59.6004 172.658 59.4173 172.422 59.187C172.187 58.9625 171.992 58.6909 171.851 58.3778C171.709 58.0707 171.638 57.7458 171.638 57.3974V57.0548L172.67 56.8894V57.4623C172.67 57.6691 172.711 57.864 172.8 58.0471C172.882 58.2302 173 58.3837 173.147 58.5196C173.289 58.6495 173.46 58.7558 173.648 58.8385C173.837 58.9153 174.037 58.9566 174.244 58.9566H174.927C175.134 58.9566 175.334 58.9271 175.523 58.8621C175.711 58.8031 175.882 58.7145 176.029 58.5963C176.177 58.4841 176.295 58.3424 176.383 58.177C176.471 58.0175 176.513 57.8344 176.513 57.6277C176.513 57.3206 176.442 57.0666 176.312 56.8717C176.177 56.6768 176 56.5114 175.782 56.3815C175.558 56.2516 175.31 56.1452 175.027 56.0566C174.745 55.974 174.456 55.8854 174.161 55.7968C173.866 55.7082 173.578 55.6078 173.295 55.4955C173.012 55.3833 172.758 55.2357 172.54 55.0585C172.322 54.8754 172.139 54.6509 172.01 54.3734C171.874 54.1017 171.809 53.7591 171.809 53.3516C171.809 53.0031 171.874 52.6842 172.01 52.4006C172.139 52.1112 172.328 51.8632 172.552 51.6565C172.782 51.4497 173.047 51.2903 173.354 51.1721C173.66 51.054 173.984 51.0009 174.332 51.0009H174.933C175.281 51.0009 175.605 51.0658 175.917 51.1958C176.224 51.3257 176.489 51.5088 176.719 51.7391C176.949 51.9695 177.126 52.2353 177.255 52.5483C177.385 52.8554 177.456 53.1803 177.456 53.5288V53.5642L176.424 53.7296V53.4697C176.424 53.263 176.383 53.0681 176.306 52.885C176.23 52.7078 176.124 52.5483 175.988 52.4125C175.853 52.2766 175.699 52.1762 175.517 52.0935C175.334 52.0167 175.139 51.9754 174.933 51.9754H174.332C174.126 51.9754 173.931 52.0049 173.748 52.064C173.566 52.1231 173.407 52.2116 173.277 52.3298C173.141 52.4479 173.035 52.5837 172.959 52.7432C172.882 52.9027 172.841 53.0917 172.841 53.2984C172.841 53.5937 172.906 53.8359 173.041 54.0249C173.171 54.2139 173.354 54.3734 173.572 54.4974C173.796 54.6273 174.043 54.7336 174.326 54.8222C174.609 54.9108 174.892 54.9994 175.187 55.0939C175.481 55.1884 175.764 55.2947 176.047 55.407C176.33 55.5251 176.583 55.6786 176.802 55.8617C177.02 56.0448 177.196 56.2752 177.332 56.5528C177.456 56.8245 177.527 57.167 177.527 57.5746Z" fill="white"/>
<path d="M185.03 58.3777C184.9 58.6908 184.717 58.9566 184.487 59.1869C184.257 59.4172 183.992 59.5944 183.686 59.7303C183.379 59.8602 183.049 59.9252 182.707 59.9252H182.018C181.67 59.9252 181.346 59.8602 181.039 59.7303C180.733 59.6003 180.462 59.4172 180.232 59.1869C180.002 58.9625 179.825 58.6908 179.69 58.3777C179.56 58.0706 179.495 57.7458 179.495 57.3973V53.5228C179.495 53.1743 179.566 52.8494 179.69 52.5423C179.825 52.2293 180.002 51.9694 180.232 51.7332C180.462 51.5028 180.727 51.3256 181.039 51.1898C181.346 51.0598 181.67 50.9949 182.018 50.9949H182.707C183.055 50.9949 183.379 51.0598 183.686 51.1898C183.992 51.3197 184.257 51.5028 184.487 51.7332C184.717 51.9635 184.894 52.2293 185.03 52.5423C185.159 52.8494 185.224 53.1743 185.224 53.5228V57.3973C185.23 57.7458 185.159 58.0706 185.03 58.3777ZM184.198 53.4637C184.198 53.257 184.157 53.0621 184.081 52.879C184.004 52.7018 183.898 52.5423 183.762 52.4065C183.627 52.2706 183.468 52.1702 183.291 52.0875C183.108 52.0108 182.914 51.9694 182.707 51.9694H182.018C181.811 51.9694 181.617 52.0108 181.434 52.0875C181.252 52.1643 181.098 52.2706 180.963 52.4065C180.833 52.5423 180.727 52.7018 180.644 52.879C180.568 53.0621 180.527 53.257 180.527 53.4637V57.4564C180.527 57.6631 180.568 57.858 180.644 58.0411C180.721 58.2242 180.827 58.3777 180.963 58.5136C181.098 58.6435 181.257 58.7498 181.434 58.8325C181.617 58.9093 181.811 58.9507 182.018 58.9507H182.707C182.914 58.9507 183.108 58.9093 183.291 58.8325C183.474 58.7557 183.627 58.6494 183.762 58.5136C183.892 58.3777 183.998 58.2183 184.081 58.0411C184.157 57.858 184.198 57.6631 184.198 57.4564V53.4637Z" fill="white"/>
<path d="M189.804 52.1467C189.597 52.1467 189.403 52.1821 189.22 52.2648C189.037 52.3416 188.878 52.4538 188.749 52.5837C188.613 52.7137 188.507 52.8791 188.43 53.0562C188.354 53.2334 188.312 53.4342 188.312 53.641V59.7599H187.281V51.1662H187.623L188.183 52.0404C188.413 51.7214 188.707 51.4675 189.061 51.2785C189.421 51.0894 189.804 51.0009 190.222 51.0009H190.829V52.1467H189.804Z" fill="white"/>
<path d="M195.332 59.754C195.02 59.754 194.725 59.6949 194.448 59.5827C194.171 59.4645 193.929 59.2992 193.729 59.0984C193.523 58.8916 193.364 58.6495 193.246 58.3778C193.122 58.1061 193.063 57.8108 193.063 57.4977V52.1526H191.525V51.1721H193.063V49.1108L194.094 48.9454V51.178H196.269V52.1585H194.094V57.5509C194.094 57.7222 194.124 57.8817 194.189 58.0352C194.254 58.1829 194.342 58.3128 194.454 58.425C194.566 58.5373 194.696 58.6259 194.849 58.6908C195.002 58.7558 195.161 58.7853 195.332 58.7853H196.269V59.7658H195.332V59.754Z" fill="white"/>
<path d="M156.007 57.0843C156.007 55.8558 155.011 54.8577 153.785 54.8577C152.559 54.8577 151.563 55.8558 151.563 57.0843C151.563 58.3128 152.559 59.311 153.785 59.311C155.011 59.311 156.007 58.3128 156.007 57.0843Z" fill="white"/>
<path d="M137.324 31.7818C136.463 28.3561 135.65 26.6079 134.712 23.194C133.993 20.5716 132.349 19.9515 129.95 21.2804C129.32 21.6289 128.736 22.0659 128.041 22.5207C127.693 22.0364 127.38 21.5993 126.974 21.0382C129.384 18.6403 131.854 16.6381 135.508 16.9275C137.866 17.1106 139.716 18.1678 140.542 20.3354C141.443 22.6861 141.927 25.1963 142.64 27.6297C143.047 29.0295 143.383 30.506 144.09 31.7523C144.544 32.5555 145.622 32.9985 146.406 33.6246C146.624 33.7958 146.789 34.0439 147.243 34.5459C133.64 34.5459 90.384 34.5459 76.987 34.5459C76.71 38.8634 75.2483 42.3422 70.9811 43.7716C67.097 45.071 63.4368 44.2145 59.8062 42.2241C60.1657 41.5803 60.484 41.0133 60.7904 40.47C67.9045 42.4604 69.8259 41.1669 69.2011 34.6523C66.1422 34.6523 63.0596 34.6582 59.9712 34.6523C57.5841 34.6523 57.478 34.5459 57.4721 32.1834C57.4663 30.4293 57.4663 28.6751 57.4721 26.9209C57.4721 21.4162 59.983 18.2032 65.3524 17.1519C68.9477 16.4431 72.4133 16.9629 75.6432 18.8352C76.5804 19.3786 76.9576 20.0224 76.9458 21.1327C76.8751 25.2022 76.9222 27.5765 76.9222 31.7759C79.0853 31.7759 96.6493 31.7759 98.9185 31.7759C98.9185 30.447 98.9185 30.8132 98.9185 29.4724C98.9185 25.8519 98.9538 22.2313 98.9008 18.6108C98.8831 17.3822 99.331 16.8271 100.563 16.8566C101.977 16.8861 103.386 16.8861 104.795 16.8566C106.032 16.833 106.463 17.4177 106.451 18.6344C106.404 22.9342 106.433 25.5329 106.433 29.8327C106.433 30.447 106.433 31.0612 106.433 31.7936C111.991 31.7818 131.954 31.7818 137.324 31.7818ZM69.319 31.7995C69.319 26.8737 69.3249 23.7374 69.3013 18.9002C69.3013 18.6285 69.095 18.2268 68.8652 18.0969C67.1972 17.146 65.0871 18.4099 65.0754 20.3531C65.0577 23.1704 65.0754 24.2926 65.0754 27.1158C65.0754 28.6692 65.0754 30.2166 65.0754 31.7936C66.6078 31.7995 67.875 31.7995 69.319 31.7995Z" fill="white"/>
<path d="M172.216 31.8054C174.449 31.8054 190.169 31.8054 192.479 31.8054C192.479 30.4116 192.479 29.0236 192.479 27.6297C192.479 24.0682 192.52 22.2018 192.456 18.6403C192.432 17.2996 192.968 16.7975 194.247 16.8389C195.656 16.8861 197.065 16.8566 198.479 16.8566C199.511 16.8566 200.012 17.3114 200 18.4041C199.964 22.3613 200.029 26.3244 199.964 30.2816C199.923 32.8568 198.131 34.5932 195.532 34.6346C192.597 34.6818 176.005 34.6227 173.076 34.6759C172.611 34.6818 171.891 34.9181 171.726 35.2606C170.218 38.3437 167.394 39.082 164.471 38.9048C161.377 38.7217 158.318 37.8889 155.176 37.3278C155.595 35.5146 156.267 35.1543 157.563 35.6859C158.383 36.0225 159.302 36.182 160.192 36.247C163.109 36.4655 164.665 35.0126 164.671 32.1008C164.689 23.8378 164.677 19.5735 164.677 11.3106C164.677 9.10755 164.807 8.98352 166.935 8.9658C172.21 8.92446 172.21 8.92446 172.21 14.2047C172.21 21.3336 172.21 22.7747 172.21 29.8977C172.216 30.5061 172.216 31.1144 172.216 31.8054Z" fill="white"/>
<path d="M161.542 32.2307C159.762 32.2307 158.058 32.3548 156.396 32.1599C155.831 32.0949 154.982 31.3094 154.899 30.7542C153.732 23.1646 152.677 19.544 151.563 11.7064C153.455 11.7064 155.241 11.606 157.003 11.7772C157.463 11.8245 158.117 12.7045 158.206 13.2774C159.361 20.867 160.428 24.4817 161.542 32.2307Z" fill="white"/>
<path d="M97.5627 44.3622C96.0185 44.3977 94.6098 43.2637 94.5862 41.9643C94.5627 40.6649 95.8652 39.5604 97.5096 39.5014C99.0539 39.4423 100.439 40.5763 100.457 41.9052C100.474 43.2519 99.213 44.3209 97.5627 44.3622Z" fill="white"/>
<path d="M107.465 41.8461C107.512 43.1927 106.221 44.3445 104.63 44.3681C102.997 44.3917 101.689 43.364 101.636 42.0115C101.589 40.6471 102.832 39.5368 104.465 39.4954C106.05 39.4541 107.412 40.529 107.465 41.8461Z" fill="white"/>
<path d="M140.371 41.9879C140.335 43.3345 139.027 44.3799 137.412 44.3622C135.85 44.3445 134.494 43.175 134.53 41.8638C134.571 40.5231 136.074 39.4068 137.718 39.5013C139.233 39.5781 140.406 40.6826 140.371 41.9879Z" fill="white"/>
<path d="M193.681 44.3622C192.119 44.3976 190.681 43.305 190.616 42.0351C190.552 40.7416 191.913 39.5308 193.469 39.4954C195.025 39.4541 196.463 40.5467 196.534 41.8284C196.611 43.116 195.255 44.3268 193.681 44.3622Z" fill="white"/>
</svg>
